# xmcd
#
# Track frame offsets:
#	150
#	14466
#	22784
#	35060
#	49043
#	56694
#	71823
#	74887
#	90349
#	107106
#	124047
#	146137
#	155542
#	175616
#	192246
#	202925
#	222514
#	245044
#	259177
#
# Disc length: 3670 seconds
#
# Revision: 0
# Processed by: cddbd v1.5.2PL0 Copyright (c) Steve Scherf et al.
# Submitted via: EasyCDDAExtractor 11.1.0.1
#
DISCID=1d0e5413
DTITLE=Katie Lee - Colorado River Songs
DYEAR=1998
DGENRE=
TTITLE0=Rapids Ahead
TTITLE1=When The Colorado Rises
TTITLE2=Two Little Flies
TTITLE3=The Canyoneers
TTITLE4=River Lullaby
TTITLE5=Kavitatin' Katie
TTITLE6=The Drinking Song
TTITLE7=Muddy River
TTITLE8=Song Of The Boatman
TTITLE9=Pore Colly Raddy
TTITLE10=The Tale Of The Tickaboo
TTITLE11=The Hippopotami
TTITLE12=Ghosts Of The Old San Juan
TTITLE13=The Wrect-The-Nation-Bureau Song
TTITLE14=Through This World
TTITLE15=Rusty Old Red River
TTITLE16=Bert Loper
TTITLE17=Shining River
TTITLE18=The Giants Once Among Us
EXTD=
EXTT0=
EXTT1=
EXTT2=
EXTT3=
EXTT4=
EXTT5=
EXTT6=
EXTT7=
EXTT8=
EXTT9=
EXTT10=
EXTT11=
EXTT12=
EXTT13=
EXTT14=
EXTT15=
EXTT16=
EXTT17=
EXTT18=
PLAYORDER=
